<svg xmlns="http://www.w3.org/2000/svg" viewBox="0 0 143.54 65.86"><defs><style>.cls-1{fill:#888;}</style></defs><title>f_logo</title><g id="Layer_2" data-name="Layer 2"><g id="레이어_1" data-name="레이어 1"><polygon class="cls-1" points="71.46 15.24 53.54 15.24 53.54 6.94 71.46 6.94 71.46 0.09 46.12 0.09 46.12 22.12 71.46 22.12 71.46 15.24"/><rect class="cls-1" x="43.74" y="27.93" width="30.09" height="6.87"/><path class="cls-1" d="M58.8,40A12.72,12.72,0,0,0,46.12,52.65,12.74,12.74,0,0,0,58.8,65.32a12.06,12.06,0,0,0,9-3.73,12.66,12.66,0,0,0,0-17.91A12.24,12.24,0,0,0,58.8,40Zm3.85,16.53a5.47,5.47,0,1,1,1.58-3.84A5.35,5.35,0,0,1,62.65,56.49Z"/><path class="cls-1" d="M98.48,22.91a12.34,12.34,0,0,0,3.15-5.09h5V29.63h-2.06a3.9,3.9,0,0,0-3.88,3.91c0,2.59,2.36,2.59,3.77,2.59h8.06a1,1,0,0,0,1-1V0h-6.85V10.38h-4.92A12.2,12.2,0,0,0,98.48,5a12.58,12.58,0,0,0-17.9,0,12.2,12.2,0,0,0-3.72,9,12.21,12.21,0,0,0,3.72,8.94,12.63,12.63,0,0,0,17.9,0ZM84.1,14a5.36,5.36,0,0,1,1.58-3.86,5.47,5.47,0,0,1,7.71,0A5.45,5.45,0,1,1,84.1,14Z"/><path class="cls-1" d="M20.52,6.35h9.61l0,.28a40.76,40.76,0,0,1-.92,13.56h7.09A57.69,57.69,0,0,0,37.82,6.6V.08H20.52Z"/><path class="cls-1" d="M9.63,6.63a39.74,39.74,0,0,1-.9,13.56h7.08A56.72,56.72,0,0,0,17.28,6.6V.09H0V6.35H9.61Z"/><polygon class="cls-1" points="25.76 20.59 18.34 20.59 18.34 27.93 6.42 27.93 6.42 34.8 13.26 34.8 27.89 34.8 36.87 34.8 36.87 27.93 25.76 27.93 25.76 20.59"/><path class="cls-1" d="M108.05,42.41a4.91,4.91,0,1,0,4.9,4.91A4.92,4.92,0,0,0,108.05,42.41Zm0,7.62a2.71,2.71,0,1,1,2.71-2.71A2.71,2.71,0,0,1,108.05,50Z"/><path class="cls-1" d="M97.54,44.62a2.71,2.71,0,0,1,2.12,1h2.49a4.94,4.94,0,1,0,.28,1.84l0,0v-.31a.32.32,0,0,0-.32-.32H99.52c-.47,0-1.23,0-1.23.86a1.27,1.27,0,0,0,1.26,1.27h.15a2.7,2.7,0,1,1-2.16-4.32Z"/><path class="cls-1" d="M92,47.44v-.31a.31.31,0,0,0-.32-.32H89c-.47,0-1.24,0-1.24.86a1.28,1.28,0,0,0,1.28,1.27h.14A2.67,2.67,0,0,1,87.05,50a2.71,2.71,0,1,1,2.11-4.39h2.48a4.9,4.9,0,1,0,.3,1.84Z"/><path class="cls-1" d="M138.64,56.05a4.91,4.91,0,1,0,4.9,4.91A4.91,4.91,0,0,0,138.64,56.05Zm0,7.61a2.71,2.71,0,1,1,2.72-2.7A2.71,2.71,0,0,1,138.64,63.66Z"/><path class="cls-1" d="M105.39,61.65a1.93,1.93,0,0,1-3.86,0V56.37H99.45v5.28a4,4,0,0,0,8,0V56.37h-2.07Z"/><path class="cls-1" d="M85.77,56.37H82.36v9.1h3.58a4,4,0,0,0,3.84-4V60.39A4,4,0,0,0,85.77,56.37Zm1.93,5.08a1.94,1.94,0,0,1-1.93,1.94H84.44V58.45h1.33a1.93,1.93,0,0,1,1.93,1.94Z"/><path class="cls-1" d="M115.25,62l-3.83-5.63H109.3v7.11H109a1.15,1.15,0,0,0-1.15,1.16c0,.83.78.83,1.11.83h2a.44.44,0,0,0,.43-.42V59.8l3.85,5.67h2.08v-9.1h-2.08Z"/><path class="cls-1" d="M127.68,60.45h-2.62c-.47,0-1.24,0-1.24.84a1.28,1.28,0,0,0,1.27,1.28h.16a2.71,2.71,0,1,1,0-3.28h2.48a4.9,4.9,0,1,0,.29,1.82l0,0v-.3A.32.32,0,0,0,127.68,60.45Z"/><polygon class="cls-1" points="91.23 56.37 91.23 58.45 91.23 59.89 91.23 61.96 91.23 63.39 91.23 65.43 91.23 65.47 97.75 65.47 97.75 63.39 93.29 63.39 93.29 61.96 97.75 61.96 97.75 59.89 93.29 59.89 93.29 58.45 97.75 58.45 97.75 56.37 93.29 56.37 91.23 56.37"/></g></g></svg>