<svg xmlns="http://www.w3.org/2000/svg" viewBox="0 0 230.22 39.77"><defs><style>.cls-1{fill:#9b9b9b;}.cls-2{fill:#1e1e1e;}</style></defs><title>logo_scroll</title><g id="Layer_2" data-name="Layer 2"><g id="레이어_1" data-name="레이어 1"><path class="cls-1" d="M222.69,3.14a7.53,7.53,0,1,0,7.53,7.54A7.54,7.54,0,0,0,222.69,3.14Zm0,11.68a4.16,4.16,0,1,1,4.16-4.14A4.16,4.16,0,0,1,222.69,14.82Z"/><path class="cls-1" d="M127.43,3.14A7.53,7.53,0,1,0,135,10.67,7.54,7.54,0,0,0,127.43,3.14Zm0,11.68a4.16,4.16,0,1,1,4.16-4.15A4.14,4.14,0,0,1,127.43,14.82Z"/><path class="cls-1" d="M118.37,9.89h-4c-.71,0-1.89,0-1.89,1.29a2,2,0,0,0,1.94,2h.25a4.16,4.16,0,1,1-.07-5h3.81a7.53,7.53,0,1,0,.45,2.78v-.51A.47.47,0,0,0,118.37,9.89Z"/><path class="cls-1" d="M102.26,9.89h-4c-.7,0-1.89,0-1.89,1.29a2,2,0,0,0,2,2h.24a4.15,4.15,0,1,1-.06-5h3.8a7.51,7.51,0,1,0,.46,2.78v-.51A.48.48,0,0,0,102.26,9.89Z"/><path class="cls-1" d="M175.79,11.73a3,3,0,1,1-5.91,0V3.64h-3.19v8.09a6.15,6.15,0,0,0,12.29,0V3.64h-3.19Z"/><path class="cls-1" d="M145.7,3.64h-5.22V17.58H146a6.15,6.15,0,0,0,5.87-6.13V9.78A6.14,6.14,0,0,0,145.7,3.64Zm3,7.8a3,3,0,0,1-3,3h-2V6.82h2a3,3,0,0,1,3,3Z"/><path class="cls-1" d="M190.92,12.26,185,3.64h-3.22V14.53h-.53a1.78,1.78,0,0,0-1.76,1.79c0,1.26,1.2,1.26,1.72,1.26h3.11a.64.64,0,0,0,.64-.64v-8l5.92,8.68h3.18V3.64h-3.18Z"/><path class="cls-1" d="M210,9.88h-4c-.7,0-1.89,0-1.89,1.3a2,2,0,0,0,1.95,2h.25a4.15,4.15,0,0,1-7.48-2.46,4.18,4.18,0,0,1,4.16-4.17,4.09,4.09,0,0,1,3.25,1.6H210a7.52,7.52,0,1,0,.45,2.76v-.5A.48.48,0,0,0,210,9.88Z"/><polygon class="cls-1" points="154.06 3.64 154.06 6.82 154.06 9.01 154.06 12.2 154.06 14.39 154.06 17.53 154.06 17.58 164.1 17.58 164.1 14.39 157.24 14.39 157.24 12.2 164.1 12.2 164.1 9.01 157.24 9.01 157.24 6.82 164.1 6.82 164.1 3.64 157.24 3.64 154.06 3.64"/><polygon class="cls-2" points="43.5 9.29 32.6 9.29 32.6 4.22 43.5 4.22 43.5 0.06 28.08 0.06 28.08 13.47 43.5 13.47 43.5 9.29"/><rect class="cls-2" x="26.63" y="17.01" width="18.31" height="4.19"/><path class="cls-2" d="M35.8,24.33a7.75,7.75,0,0,0-7.72,7.73,7.73,7.73,0,0,0,7.72,7.71,7.7,7.7,0,0,0,7.7-7.71,7.72,7.72,0,0,0-7.7-7.73ZM38.14,34.4a3.22,3.22,0,0,1-2.34,1,3.17,3.17,0,0,1-2.34-1,3.3,3.3,0,0,1,0-4.69,3.21,3.21,0,0,1,2.34-1,3.32,3.32,0,0,1,2.34,5.66Z"/><path class="cls-2" d="M64.92,6.32h-3a7.31,7.31,0,0,0-2-3.27,7.68,7.68,0,0,0-10.9,0A7.44,7.44,0,0,0,46.8,8.51,7.41,7.41,0,0,0,49.06,14,7.7,7.7,0,0,0,60,14a7.34,7.34,0,0,0,1.92-3.11h3V18H63.67a2.38,2.38,0,0,0-2.36,2.39C61.31,22,62.75,22,63.6,22h4.91a.59.59,0,0,0,.59-.59V0H64.92Zm-8.06,4.52A3.32,3.32,0,0,1,51.2,8.51a3.32,3.32,0,0,1,5.66-2.35,3.31,3.31,0,0,1,0,4.68Z"/><path class="cls-2" d="M12.5,3.87h5.85V4a24.19,24.19,0,0,1-.55,8.25h4.31A34.59,34.59,0,0,0,23,4v-4H12.5Z"/><path class="cls-2" d="M5.87,4a24.19,24.19,0,0,1-.56,8.25H9.63A35.11,35.11,0,0,0,10.53,4v-4H0V3.87H5.85Z"/><polygon class="cls-2" points="15.69 12.54 11.17 12.54 11.17 17.01 3.91 17.01 3.91 21.2 8.07 21.2 16.98 21.2 22.45 21.2 22.45 17.01 15.69 17.01 15.69 12.54"/></g></g></svg>