<svg xmlns="http://www.w3.org/2000/svg" viewBox="0 0 230.22 39.77"><defs><style>.cls-1{fill:#fff;}</style></defs><title>logo</title><g id="Layer_2" data-name="Layer 2"><g id="레이어_1" data-name="레이어 1"><path class="cls-1" d="M222.69,3.14a7.53,7.53,0,1,0,7.53,7.54A7.54,7.54,0,0,0,222.69,3.14Zm0,11.68a4.16,4.16,0,1,1,4.16-4.14A4.16,4.16,0,0,1,222.69,14.82Z"/><path class="cls-1" d="M127.43,3.14A7.53,7.53,0,1,0,135,10.67,7.54,7.54,0,0,0,127.43,3.14Zm0,11.68a4.16,4.16,0,1,1,4.16-4.15A4.14,4.14,0,0,1,127.43,14.82Z"/><path class="cls-1" d="M118.37,9.89h-4c-.71,0-1.89,0-1.89,1.29a2,2,0,0,0,1.94,2H118V13l.85-2.14v-.48A.47.47,0,0,0,118.37,9.89Z"/><path class="cls-1" d="M115.48,10.67a4.18,4.18,0,1,1-.9-2.57h3.81a7.51,7.51,0,1,0,.46,2.57v-.06h-3.37Z"/><path class="cls-1" d="M102.26,9.89h-4c-.7,0-1.89,0-1.89,1.29a2,2,0,0,0,2,2h3.59V13l.86-2.14v-.48A.48.48,0,0,0,102.26,9.89Z"/><path class="cls-1" d="M99.37,10.67a4.16,4.16,0,1,1-.89-2.57h3.8a7.49,7.49,0,1,0,.47,2.57s0,0,0-.06H99.37Z"/><path class="cls-1" d="M175.79,3.64v8.09a3,3,0,1,1-5.91,0V3.64h-3.19v8.09a6.15,6.15,0,0,0,12.29,0V3.64Z"/><path class="cls-1" d="M145.7,3.64h-5.22V17.58H146a6.15,6.15,0,0,0,5.87-6.13V9.78A6.14,6.14,0,0,0,145.7,3.64Zm-2,10.75V6.82h2a3,3,0,0,1,3,3v1.66a3,3,0,0,1-3,3h-2Z"/><path class="cls-1" d="M185,16.94v-.68h0V8.9l5.92,8.68h3.18V3.64h-3.18v8.62L185,3.64h-3.22V14.53h-.53a1.78,1.78,0,0,0-1.76,1.79c0,1.26,1.2,1.26,1.72,1.26h3.11A.64.64,0,0,0,185,16.94Z"/><path class="cls-1" d="M210,9.88h-4c-.7,0-1.89,0-1.89,1.3a2,2,0,0,0,1.95,2h3.6V13l.85-2.15v-.48A.48.48,0,0,0,210,9.88Z"/><path class="cls-1" d="M207.09,10.68a4.16,4.16,0,1,1-4.15-4.17,4.09,4.09,0,0,1,3.25,1.6H210a7.5,7.5,0,1,0,.46,2.57v-.07h-3.38S207.09,10.66,207.09,10.68Z"/><polygon class="cls-1" points="154.06 3.64 154.06 6.82 154.06 9.01 154.06 12.2 154.06 14.39 154.06 17.53 154.06 17.58 164.1 17.58 164.1 14.39 157.24 14.39 157.24 12.2 164.1 12.2 164.1 9.01 157.24 9.01 157.24 6.82 164.1 6.82 164.1 3.64 157.24 3.64 154.06 3.64"/><path class="cls-1" d="M43.5,13.47H28.08V.06H43.5V4.22H32.6V9.29H43.5Z"/><path class="cls-1" d="M45,21.19H26.63V17H45Z"/><path class="cls-1" d="M35.8,24.33a7.72,7.72,0,0,1,7.7,7.73,7.7,7.7,0,0,1-7.7,7.71,7.73,7.73,0,0,1-7.72-7.71,7.75,7.75,0,0,1,7.72-7.73Zm0,11a3.22,3.22,0,0,0,2.34-1,3.32,3.32,0,0,0-2.34-5.66,3.33,3.33,0,0,0-3.32,3.32,3.25,3.25,0,0,0,1,2.34A3.17,3.17,0,0,0,35.8,35.37Z"/><path class="cls-1" d="M54.52.78A7.44,7.44,0,0,1,60,3.05a7.4,7.4,0,0,1,2.26,5.46A7.37,7.37,0,0,1,60,14a7.7,7.7,0,0,1-10.9,0A7.41,7.41,0,0,1,46.8,8.51a7.44,7.44,0,0,1,2.26-5.46A7.45,7.45,0,0,1,54.52.78Zm0,11a3.23,3.23,0,0,0,2.34-1,3.31,3.31,0,0,0,0-4.68A3.32,3.32,0,0,0,51.2,8.51a3.33,3.33,0,0,0,3.32,3.31Z"/><path class="cls-1" d="M64.92,0V6.32H58.43v4.52h6.49V18H63.67a2.38,2.38,0,0,0-2.36,2.39C61.31,22,62.75,22,63.6,22h4.91a.59.59,0,0,0,.59-.59V0Z"/><path class="cls-1" d="M23,4v-4H12.5V3.87h5.85V4a24.19,24.19,0,0,1-.55,8.25h4.31A34.59,34.59,0,0,0,23,4Z"/><path class="cls-1" d="M10.53.06H0V3.87H5.85l0,.17a24.19,24.19,0,0,1-.56,8.25H9.63A35.11,35.11,0,0,0,10.53,4Z"/><polygon class="cls-1" points="15.69 17.01 15.69 12.54 11.17 12.54 11.17 17.01 3.91 17.01 3.91 21.2 8.07 21.2 16.98 21.2 22.45 21.2 22.45 17.01 15.69 17.01"/></g></g></svg>