<svg xmlns="http://www.w3.org/2000/svg" viewBox="0 0 179.5 87.87"><defs><style>.cls-1{fill:#fff;}</style></defs><title>vi_log</title><g id="Layer_2" data-name="Layer 2"><g id="Layer_1-2" data-name="Layer 1"><path class="cls-1" d="M96,29.76H61.9V.13H96V9.34H71.86V20.52H96Z"/><path class="cls-1" d="M99.17,46.82H58.7V37.57H99.17Z"/><path class="cls-1" d="M79,53.74a17.07,17.07,0,0,1,17,17.1,17,17,0,0,1-17,17,17.07,17.07,0,0,1-17.05-17A17.12,17.12,0,0,1,79,53.74Zm0,24.4A7.13,7.13,0,0,0,84.12,76a7.25,7.25,0,0,0,2.14-5.16A7.36,7.36,0,0,0,79,63.49a7.39,7.39,0,0,0-7.33,7.35A7.15,7.15,0,0,0,73.78,76,7,7,0,0,0,79,78.14Z"/><path class="cls-1" d="M120.3,1.72a16.51,16.51,0,0,1,12,5,16.4,16.4,0,0,1,5,12.07,16.35,16.35,0,0,1-5,12,17,17,0,0,1-24.1,0,16.39,16.39,0,0,1-5-12,16.45,16.45,0,0,1,5-12.07A16.52,16.52,0,0,1,120.3,1.72Zm0,24.39a7.32,7.32,0,0,0,7.32-7.31,7.31,7.31,0,0,0-7.32-7.33,7,7,0,0,0-5.18,2.15,7.26,7.26,0,0,0,0,10.33A7,7,0,0,0,120.3,26.11Z"/><path class="cls-1" d="M143.29,0V14H128.94V24h14.35V39.87h-2.74a5.23,5.23,0,0,0-5.23,5.26c0,3.48,3.17,3.48,5.05,3.48h10.84a1.3,1.3,0,0,0,1.3-1.31V0Z"/><path class="cls-1" d="M50.86,8.88V.13H27.61V8.56H40.53l0,.37a54,54,0,0,1-1.23,18.22h9.54A77.45,77.45,0,0,0,50.86,8.88Z"/><path class="cls-1" d="M23.26.13H0V8.56H12.94l0,.37a53.77,53.77,0,0,1-1.21,18.22h9.53a76.85,76.85,0,0,0,2-18.27Z"/><polygon class="cls-1" points="34.66 37.58 34.66 27.71 24.67 27.71 24.67 37.58 8.63 37.58 8.63 46.82 17.84 46.82 37.52 46.82 49.6 46.82 49.6 37.58 34.66 37.58"/><path class="cls-1" d="M137.52,58.12a5.65,5.65,0,1,0,5.65,5.65A5.65,5.65,0,0,0,137.52,58.12Zm0,8.76a3.12,3.12,0,1,1,3.13-3.11A3.12,3.12,0,0,1,137.52,66.88Z"/><path class="cls-1" d="M130.72,63.17h-3c-.53,0-1.42,0-1.42,1a1.47,1.47,0,0,0,1.46,1.46h2.7v-.1l.64-1.62v-.36A.37.37,0,0,0,130.72,63.17Z"/><path class="cls-1" d="M128.56,63.77a3.16,3.16,0,1,1-.69-1.93h2.86a5.62,5.62,0,1,0,.35,1.93v-.05h-2.54S128.56,63.75,128.56,63.77Z"/><path class="cls-1" d="M118.62,63.17h-3c-.53,0-1.41,0-1.41,1a1.46,1.46,0,0,0,1.47,1.46h2.68v-.1L119,63.9v-.36A.36.36,0,0,0,118.62,63.17Z"/><path class="cls-1" d="M116.46,63.77a3.14,3.14,0,1,1-.68-1.93h2.86a5.62,5.62,0,1,0,.35,1.93v-.05h-2.53Z"/><path class="cls-1" d="M173.85,73.32A5.65,5.65,0,1,0,179.5,79,5.65,5.65,0,0,0,173.85,73.32Zm0,8.74a3.12,3.12,0,0,1,0-6.23,3.12,3.12,0,1,1,0,6.23Z"/><path class="cls-1" d="M135.58,73.68v6.07a2.22,2.22,0,1,1-4.44,0V73.68h-2.4v6.07a4.62,4.62,0,0,0,9.23,0V73.68Z"/><path class="cls-1" d="M113,73.68h-3.92V84.15h4.12a4.63,4.63,0,0,0,4.4-4.62V78.29A4.6,4.6,0,0,0,113,73.68Zm-1.53,8.07V76.09H113a2.21,2.21,0,0,1,2.22,2.2v1.24A2.22,2.22,0,0,1,113,81.75h-1.53Z"/><path class="cls-1" d="M142.49,83.66v-.5h0V77.63l4.43,6.52h2.4V73.68h-2.4v6.47l-4.4-6.47H140.1v8.18h-.39a1.33,1.33,0,0,0-1.34,1.34c0,1,.92,1,1.3,1H142A.49.49,0,0,0,142.49,83.66Z"/><path class="cls-1" d="M161.24,78.37h-3c-.53,0-1.42,0-1.42,1a1.48,1.48,0,0,0,1.46,1.47H161v-.11l.64-1.61v-.37A.35.35,0,0,0,161.24,78.37Z"/><path class="cls-1" d="M159.08,79a3.18,3.18,0,1,1-.69-1.93h2.87A5.64,5.64,0,1,0,161.6,79v0h-2.53A.2.2,0,0,1,159.08,79Z"/><polygon class="cls-1" points="119.27 73.68 119.27 76.08 119.27 77.72 119.27 80.11 119.27 81.75 119.27 84.11 119.27 84.15 126.79 84.15 126.79 81.75 121.65 81.75 121.65 80.11 126.79 80.11 126.79 77.72 121.65 77.72 121.65 76.08 126.79 76.08 126.79 73.68 121.65 73.68 119.27 73.68"/></g></g></svg>